<?xml version="1.0" standalone="no"?>
<!DOCTYPE svg PUBLIC "-//W3C//DTD SVG 20010904//EN" "http://www.w3.org/TR/2001/REC-SVG-20010904/DTD/svg10.dtd">
<svg version="1.0" xmlns="http://www.w3.org/2000/svg" width="41.000000pt" height="22.000000pt"
    viewBox="0 0 41.000000 22.000000" preserveAspectRatio="xMidYMid meet">

    <g transform="translate(0.000000,22.000000) scale(0.100000,-0.100000)" fill="#000000" stroke="none">
        <path d="M32 108 l3 -103 33 -3 32 -3 0 105 0 106 -35 0 -36 0 3 -102z" />
        <path d="M140 180 l0 -30 86 0 85 0 -3 28 c-3 27 -4 27 -85 30 l-83 3 0 -31z" />
        <path d="M140 55 l0 -56 83 3 82 3 3 53 3 52 -85 0 -86 0 0 -55z" />
    </g>
</svg>